<?xml version="1.0" encoding="UTF-8"?>
<svg xmlns="http://www.w3.org/2000/svg" viewBox="0 0 400 324.08">
  <path d="m252.77.04c-32.19.71-63.7,9.5-91.61,25.56-3.68,2.12-8.15,2.31-12,.52-19.83-9.19-41.56-13.55-63.41-12.73-3.97.15-7.39,2.83-8.49,6.65-1.1,3.82.38,7.91,3.66,10.14,9.46,6.45,16.54,15.82,20.16,26.68,3.62,10.86,3.58,22.61-.12,33.44-33.24,45.52-54.69,98.55-62.44,154.38-.43,3.1-1.96,5.93-4.3,8C14.39,270.14,2.12,294.63,0,320.97c-.09,1.19.55,2.31,1.63,2.83,1.07.51,2.36.32,3.22-.5,27.03-25.52,64.09-37.57,100.96-32.82,1.23.16,2.44-.38,3.13-1.41.69-1.03.73-2.36.11-3.43-6.68-11.56-16.02-21.36-27.24-28.6-3-1.94-5.07-5.02-5.73-8.53-.66-3.51.14-7.13,2.22-10.03,40.83-56.92,99.11-98.96,166-119.76h-.11c3.64-1.13,7.59-.61,10.81,1.42,3.23,2.03,5.4,5.37,5.96,9.13,2.1,14.28-3.31,28.64-14.32,37.98,13.74,1.19,27.35-3.4,37.56-12.67,10.21-9.27,16.09-22.38,16.23-36.17.03-3.43,1.42-6.72,3.86-9.13,2.44-2.42,5.74-3.77,9.17-3.77h64.34c7.93-.21,15.34-3.95,20.21-10.21,2.65-3.37,2.65-8.11,0-11.47-6.5-8.19-15.21-14.34-25.11-17.71-7.62-18.31-20.27-34.1-36.48-45.53-16.22-11.43-35.34-18.03-55.15-19.04-9.47-1.21-19.02-1.71-28.56-1.5h.05Zm58.5,42.13c3.45.09,6.21,2.93,6.2,6.38.04,1.71-.61,3.37-1.81,4.6-1.2,1.23-2.84,1.92-4.56,1.92s-3.36-.69-4.56-1.92c-1.2-1.23-1.85-2.89-1.81-4.6,0-1.72.69-3.37,1.92-4.57,1.23-1.2,2.89-1.85,4.62-1.81h0Z"/>
</svg>