<?xml version="1.0" encoding="UTF-8"?>
<svg xmlns="http://www.w3.org/2000/svg" viewBox="0 0 400 400">
  <path d="m200,0C89.54,0,0,89.54,0,200c0,39.91,11.7,77.09,31.84,108.3,4.69-9.73,11.28-18.53,19.54-25.79,1.88-1.65,3.1-3.92,3.44-6.4,6.2-44.66,23.36-87.09,49.95-123.5,2.96-8.66,3-18.06.1-26.75-2.9-8.69-8.56-16.18-16.13-21.34-2.63-1.79-3.81-5.06-2.93-8.11.88-3.05,3.61-5.2,6.79-5.32,17.47-.66,34.86,2.83,50.72,10.18,3.08,1.43,6.66,1.27,9.6-.42,22.33-12.85,47.53-19.88,73.29-20.44h-.04c7.63-.17,15.27.23,22.85,1.2,15.85.81,31.14,6.09,44.12,15.24,12.97,9.14,23.09,21.77,29.19,36.42,7.92,2.7,14.89,7.61,20.09,14.16,2.12,2.69,2.12,6.48,0,9.18-3.89,5.01-9.83,8.01-16.17,8.17h-51.47c-2.75,0-5.38,1.09-7.34,3.02-1.95,1.93-3.06,4.56-3.09,7.31-.11,11.03-4.81,21.52-12.98,28.93-8.17,7.42-19.06,11.09-30.05,10.13,8.81-7.47,13.14-18.96,11.46-30.38-.44-3.01-2.18-5.69-4.77-7.31-2.58-1.62-5.74-2.04-8.65-1.13h.09c-53.51,16.64-100.13,50.27-132.8,95.81-1.66,2.32-2.31,5.22-1.78,8.03.53,2.81,2.19,5.27,4.59,6.82,8.97,5.79,16.44,13.63,21.79,22.88.5.86.46,1.92-.09,2.75-.55.82-1.52,1.26-2.51,1.13-22.38-2.89-44.85,1.97-63.83,13.41,36.67,45.05,92.56,73.84,155.18,73.84,110.46,0,200-89.54,200-200S310.46,0,200,0Z" fill="#7dc7e9"/>
  <path d="m276.53,122.89c.96-.98,1.48-2.31,1.45-3.68,0-2.77-2.19-5.03-4.96-5.11h0c-1.38-.04-2.71.48-3.69,1.45-.99.96-1.54,2.28-1.54,3.66-.03,1.37.49,2.7,1.45,3.68.96.98,2.27,1.53,3.65,1.53s2.69-.55,3.65-1.53Z" fill="#7dc7e9"/>
</svg>