<?xml version="1.0" encoding="UTF-8"?>
<svg xmlns="http://www.w3.org/2000/svg" viewBox="0 0 400 400">
  <circle id="Circle" fill="#7dc7e9" cx="200" cy="200" r="200"/>
  <path id="Dolphin" fill="#fff" d="m246.17,58.25c-28.17.62-55.74,8.31-80.16,22.36-3.22,1.85-7.13,2.02-10.5.46-17.35-8.04-36.37-11.85-55.48-11.14-3.47.13-6.47,2.48-7.43,5.82-.96,3.34.33,6.92,3.21,8.87,8.28,5.64,14.48,13.84,17.64,23.34,3.17,9.5,3.13,19.78-.11,29.26-29.08,39.83-47.85,86.24-54.64,135.08-.38,2.71-1.71,5.19-3.77,7-17.35,15.28-28.09,36.71-29.94,59.76-.08,1.04.48,2.02,1.42,2.47.94.45,2.06.28,2.82-.44,23.65-22.33,56.08-32.87,88.34-28.71,1.07.14,2.14-.34,2.74-1.24.6-.9.64-2.07.1-3-5.85-10.12-14.02-18.69-23.83-25.02-2.62-1.7-4.44-4.39-5.02-7.46-.58-3.07.12-6.24,1.94-8.78,35.73-49.8,86.72-86.59,145.25-104.79h-.09c3.18-.99,6.64-.54,9.46,1.24,2.82,1.77,4.73,4.7,5.21,7.99,1.84,12.5-2.9,25.06-12.53,33.23,12.02,1.04,23.93-2.97,32.86-11.08,8.93-8.11,14.08-19.58,14.2-31.65.03-3,1.24-5.88,3.38-7.99,2.14-2.11,5.02-3.3,8.02-3.3h56.3c6.94-.18,13.43-3.46,17.68-8.94,2.31-2.95,2.31-7.09,0-10.04-5.69-7.16-13.31-12.54-21.97-15.49-6.67-16.03-17.73-29.84-31.92-39.84-14.19-10-30.92-15.78-48.25-16.66-8.29-1.06-16.64-1.49-24.99-1.31h.04Zm51.19,36.86c3.02.08,5.43,2.56,5.42,5.59.04,1.5-.54,2.95-1.58,4.03-1.05,1.07-2.48,1.68-3.99,1.68s-2.94-.6-3.99-1.68c-1.05-1.08-1.62-2.53-1.58-4.03,0-1.51.6-2.95,1.68-4,1.08-1.05,2.53-1.62,4.04-1.58h0Z"/>
</svg>