<?xml version="1.0" encoding="UTF-8"?><svg xmlns="http://www.w3.org/2000/svg" viewBox="0 0 200 200"><defs><style>.cls-1{fill:#27445d;}.cls-2{fill:#fff;}</style></defs><g id="Layer_2"><rect class="cls-1" width="200" height="200"/></g><g id="Layer_1"><path class="cls-2" d="M99.86,200c-1.55-.02-3.06-.54-4.3-1.49l-.14-.14C-13.63,105.72.24,35.73.91,32.81c.29-1.21.9-2.31,1.75-3.2C28.24,3.43,86.37.42,99.01,0h1.9c12.51.42,70.67,3.43,96.34,29.61.91.86,1.56,1.97,1.85,3.2.68,2.87,14.55,72.86-94.65,165.51l-.13.14c-1.29.97-2.85,1.51-4.45,1.54ZM13.56,37.62c-.54,4.91-1.07,19.51,6.46,41.07,8.48,24.15,29.22,61.82,79.83,105.75C189,107.08,187.37,48.55,186.17,37.62c-19.39-17.72-62.87-23.59-86.17-24.14h-.27c-23.15.54-66.77,6.42-86.17,24.14Z"/><path class="cls-1" d="M100.27,6.66h0c7.14.14,67.58,2.46,92.22,27.56,0,0,14.96,67.82-92.48,158.83v.27l-.14-.14-.13.14v-.27C-7.57,102.17,7.37,34.41,7.37,34.41,32.09,9.25,92.47,6.93,99.59,6.8h.41c.07-.08.16-.13.27-.14"/><path id="T" class="cls-2" d="M185.9,36.81s-26.85-24.28-85.63-24.43h-.27c-58.83.14-85.63,24.43-85.63,24.43-3.9,23.34,8.48,48.44,7.9,49.12,8.17-5.11,16.74-9.53,25.62-13.24-1.98-6.91-3.6-13.93-4.85-21.02,16.96-10.5,37.7-10.77,37.7-10.77v127.03c6.32,5.73,17.1,15.01,19.11,16.79v.27l.16-.13.13.14v-.27c2.02-1.78,12.79-11.06,19.13-16.79V40.91s20.74.13,37.7,10.77c-1.24,7.09-2.85,14.1-4.83,21.02,8.87,3.71,17.42,8.13,25.58,13.24-.43-.69,12.1-25.79,8.2-49.12Z"/></g></svg>