<?xml version="1.0" encoding="UTF-8"?><svg id="Layer_1" xmlns="http://www.w3.org/2000/svg" viewBox="0 0 16 16"><defs><style>.cls-1{fill:#fff;}</style></defs><path class="cls-1" d="M15.93,2.63c-.02-.1-.07-.19-.15-.26C13.73.27,9.07.03,8.07,0h-.15C6.91.03,2.26.27.21,2.37c-.07.07-.12.16-.14.26-.05.23-1.16,5.83,7.56,13.24h.01c.1.09.22.13.34.13.13,0,.25-.05.36-.12h.01c8.74-7.42,7.63-13.02,7.57-13.25ZM8,15.44v.02h-.01s-.01,0-.01,0v-.02C-.61,8.17.59,2.75.59,2.75,2.57.74,7.4.55,7.97.54h.03s.01-.01.02-.01c.57.01,5.41.2,7.38,2.21,0,0,1.2,5.43-7.4,12.71Z"/><path class="cls-1" d="M14.87,2.95s-2.15-1.94-6.85-1.95h-.02c-4.71.01-6.85,1.95-6.85,1.95-.31,1.87.68,3.87.63,3.93.65-.41,1.34-.76,2.05-1.06-.16-.55-.29-1.11-.39-1.68,1.36-.84,3.02-.86,3.02-.86v10.16c.51.46,1.37,1.2,1.53,1.34v.02h.01s.01,0,.01,0v-.02c.16-.14,1.02-.88,1.53-1.34V3.27s1.66.01,3.02.86c-.1.57-.23,1.13-.39,1.68.71.3,1.39.65,2.05,1.06-.03-.06.97-2.06.66-3.93Z"/></svg>